<mxfile host="app.diagrams.net" modified="2022-02-17T08:55:40.119Z" agent="5.0 (Macintosh; Intel Mac OS X 10_14_5) AppleWebKit/537.36 (KHTML, like Gecko) Chrome/97.0.4692.99 Safari/537.36" etag="faLhzDGwkN1i0wJhkdFb" version="16.5.6" type="github">
  <diagram id="emh4ZFMauebpftam5A-7" name="Page-1">
    <mxGraphModel dx="946" dy="646" grid="1" gridSize="10" guides="1" tooltips="1" connect="1" arrows="1" fold="1" page="1" pageScale="1" pageWidth="827" pageHeight="1169" math="0" shadow="0">
      <root>
        <mxCell id="0" />
        <mxCell id="1" parent="0" />
        <mxCell id="n969LYfNCxMuMrE1hix9-5" style="edgeStyle=orthogonalEdgeStyle;rounded=0;orthogonalLoop=1;jettySize=auto;html=1;" edge="1" parent="1" source="n969LYfNCxMuMrE1hix9-1" target="n969LYfNCxMuMrE1hix9-3">
          <mxGeometry relative="1" as="geometry" />
        </mxCell>
        <mxCell id="n969LYfNCxMuMrE1hix9-1" value="查询文本" style="rounded=0;whiteSpace=wrap;html=1;" vertex="1" parent="1">
          <mxGeometry x="60" y="240" width="120" height="60" as="geometry" />
        </mxCell>
        <mxCell id="n969LYfNCxMuMrE1hix9-8" style="edgeStyle=orthogonalEdgeStyle;rounded=0;orthogonalLoop=1;jettySize=auto;html=1;" edge="1" parent="1" source="n969LYfNCxMuMrE1hix9-2" target="n969LYfNCxMuMrE1hix9-4">
          <mxGeometry relative="1" as="geometry" />
        </mxCell>
        <mxCell id="n969LYfNCxMuMrE1hix9-2" value="查询" style="rounded=0;whiteSpace=wrap;html=1;" vertex="1" parent="1">
          <mxGeometry x="470" y="80" width="120" height="60" as="geometry" />
        </mxCell>
        <mxCell id="n969LYfNCxMuMrE1hix9-6" style="edgeStyle=orthogonalEdgeStyle;rounded=0;orthogonalLoop=1;jettySize=auto;html=1;" edge="1" parent="1" source="n969LYfNCxMuMrE1hix9-3" target="n969LYfNCxMuMrE1hix9-4">
          <mxGeometry relative="1" as="geometry" />
        </mxCell>
        <mxCell id="n969LYfNCxMuMrE1hix9-3" value="NLP Model" style="rounded=0;whiteSpace=wrap;html=1;" vertex="1" parent="1">
          <mxGeometry x="270" y="240" width="120" height="60" as="geometry" />
        </mxCell>
        <mxCell id="n969LYfNCxMuMrE1hix9-10" style="edgeStyle=orthogonalEdgeStyle;rounded=0;orthogonalLoop=1;jettySize=auto;html=1;" edge="1" parent="1" source="n969LYfNCxMuMrE1hix9-4" target="n969LYfNCxMuMrE1hix9-9">
          <mxGeometry relative="1" as="geometry" />
        </mxCell>
        <mxCell id="n969LYfNCxMuMrE1hix9-4" value="MERS 引擎" style="rounded=0;whiteSpace=wrap;html=1;" vertex="1" parent="1">
          <mxGeometry x="470" y="240" width="120" height="60" as="geometry" />
        </mxCell>
        <mxCell id="n969LYfNCxMuMrE1hix9-9" value="查询结果" style="rounded=0;whiteSpace=wrap;html=1;" vertex="1" parent="1">
          <mxGeometry x="690" y="240" width="120" height="60" as="geometry" />
        </mxCell>
      </root>
    </mxGraphModel>
  </diagram>
</mxfile>
